<svg width="18" height="20" viewBox="0 0 18 20" fill="none" xmlns="http://www.w3.org/2000/svg">
<path d="M2.17839 20C1.61055 20 1.12428 19.8043 0.719563 19.413C0.315538 19.021 0.113525 18.55 0.113525 18V4H2.17839V18H13.5351V20H2.17839ZM6.30812 16C5.74028 16 5.25435 15.8043 4.85033 15.413C4.44561 15.021 4.24326 14.55 4.24326 14V2C4.24326 1.45 4.44561 0.979 4.85033 0.587C5.25435 0.195667 5.74028 0 6.30812 0H15.6C16.1678 0 16.6541 0.195667 17.0588 0.587C17.4629 0.979 17.6649 1.45 17.6649 2V14C17.6649 14.55 17.4629 15.021 17.0588 15.413C16.6541 15.8043 16.1678 16 15.6 16H6.30812ZM6.30812 14H15.6V2H6.30812V14Z" fill="#7F8291"/>
</svg>
