<svg width="1280" height="190" viewBox="0 0 1280 190" fill="none" xmlns="http://www.w3.org/2000/svg">
<path fill-rule="evenodd" clip-rule="evenodd" d="M0 47.5L53.3333 67.2917C106.667 87.0833 213.333 126.667 320 130.625C426.667 134.583 533.333 102.917 640 106.875C746.667 110.833 853.333 150.417 960 138.542C1066.67 126.667 1173.33 63.3333 1226.67 31.6667L1280 0V190H1226.67C1173.33 190 1066.67 190 960 190C853.333 190 746.667 190 640 190C533.333 190 426.667 190 320 190C213.333 190 106.667 190 53.3333 190H0V47.5Z" fill="#7F8291"/>
</svg>
